<svg width="30" height="30" viewBox="0 0 30 30" fill="none" xmlns="http://www.w3.org/2000/svg">
<path fill-rule="evenodd" clip-rule="evenodd" d="M19.7849 16.6059H16.2499V20.1359C16.2499 20.6534 15.8299 21.0734 15.3124 21.0734C14.7949 21.0734 14.3749 20.6534 14.3749 20.1359V16.6059H10.8399C10.3224 16.6059 9.90242 16.1859 9.90242 15.6684C9.90242 15.1509 10.3224 14.7309 10.8399 14.7309H14.3749V11.2009C14.3749 10.6834 14.7949 10.2634 15.3124 10.2634C15.8299 10.2634 16.2499 10.6834 16.2499 11.2009V14.7309H19.7849C20.3024 14.7309 20.7224 15.1509 20.7224 15.6684C20.7224 16.1859 20.3024 16.6059 19.7849 16.6059ZM15.3124 2.8721C5.86367 2.8721 2.51617 6.2196 2.51617 15.6684C2.51617 25.1171 5.86367 28.4646 15.3124 28.4646C24.7599 28.4646 28.1086 25.1171 28.1086 15.6684C28.1086 6.2196 24.7599 2.8721 15.3124 2.8721Z" fill="white"/>
</svg>
