<svg width="28" height="29" viewBox="0 0 28 29" fill="none" xmlns="http://www.w3.org/2000/svg">
<g clip-path="url(#clip0_1_214)">
<path d="M3.16333 0.75357C3.23492 0.775056 3.30654 0.796438 3.37819 0.817727C3.57059 0.875185 3.76256 0.933987 3.95447 0.993065C4.15722 1.05523 4.36033 1.11618 4.56342 1.17721C4.81896 1.25407 5.07445 1.33105 5.32979 1.40856C5.91058 1.58476 6.49247 1.75683 7.07533 1.92606C7.20937 1.965 7.3434 2.00403 7.47741 2.04311C7.52111 2.05585 7.56481 2.06859 7.60983 2.08172C7.6972 2.10719 7.78457 2.13267 7.87194 2.15816C8.08489 2.22023 8.29788 2.28213 8.511 2.34363C8.71179 2.40159 8.91238 2.46018 9.11286 2.5192C9.18603 2.54062 9.25926 2.56183 9.33256 2.5828C9.97513 2.76677 10.5464 2.9861 11.0368 3.45035C11.1555 3.56183 11.278 3.66321 11.4058 3.76416C11.6511 3.95829 11.8945 4.15465 12.1372 4.35205C12.1752 4.38298 12.2133 4.4139 12.2525 4.44576C12.5091 4.65455 12.7653 4.86391 13.0212 5.07367C13.1426 5.17281 13.2642 5.27162 13.3861 5.37018C13.7358 5.65321 14.0845 5.93704 14.4272 6.22852C14.6472 6.41551 14.8677 6.60176 15.0903 6.78564C15.1359 6.82336 15.1816 6.86107 15.2285 6.89993C15.3797 7.01755 15.5348 7.12214 15.6953 7.22656C15.7611 7.15529 15.8268 7.084 15.8925 7.01263C15.9482 6.95214 16.0039 6.89171 16.0597 6.83135C16.2021 6.67667 16.3382 6.52064 16.4678 6.35498C16.7884 5.97725 17.2609 5.83189 17.7393 5.7876C18.3284 5.83838 18.7297 6.10512 19.1646 6.48486C19.1975 6.51338 19.2305 6.5419 19.2644 6.57129C19.3691 6.66194 19.4736 6.75285 19.5781 6.84375C19.6459 6.90245 19.7137 6.96112 19.7815 7.01978C19.9528 7.16801 20.1239 7.31644 20.295 7.46494C20.4661 7.61343 20.6374 7.76179 20.8086 7.91016C20.877 7.9694 20.9453 8.02864 21.0137 8.08789C21.0475 8.11722 21.0814 8.14654 21.1162 8.17676C21.6802 8.66553 21.6802 8.66553 22.2441 9.1543C22.278 9.18365 22.3119 9.213 22.3468 9.24324C22.4148 9.3022 22.4828 9.36118 22.5508 9.42018C22.7268 9.57283 22.903 9.72509 23.0798 9.87677C23.1162 9.90803 23.1525 9.9393 23.19 9.97151C23.2586 10.0305 23.3273 10.0894 23.3961 10.1482C24.0723 10.7306 24.0723 10.7306 24.1924 11.0376C24.2086 11.0773 24.2248 11.117 24.2415 11.1579C24.3999 11.6184 24.3698 12.0384 24.1956 12.4915C24.0823 12.7071 23.9251 12.8715 23.7517 13.041C23.6666 13.1765 23.6666 13.1765 23.7007 13.2898C23.7147 13.3287 23.7287 13.3677 23.7432 13.4078C23.7589 13.4517 23.7747 13.4956 23.7909 13.5408C23.88 13.7749 23.9729 14.0073 24.0683 14.239C24.0899 14.2919 24.1116 14.3449 24.1339 14.3994C24.2045 14.572 24.2754 14.7445 24.3462 14.917C24.3958 15.0381 24.4454 15.1592 24.495 15.2803C24.6193 15.5839 24.7438 15.8875 24.8684 16.191C24.9507 16.3914 25.0328 16.5919 25.115 16.7923C25.2392 17.0951 25.3633 17.3978 25.4876 17.7005C25.7813 18.4158 26.0741 19.1313 26.3667 19.847C26.5915 20.3968 26.8165 20.9465 27.0421 21.4959C27.0619 21.5441 27.0817 21.5923 27.1021 21.642C27.1953 21.8691 27.2886 22.0962 27.382 22.3232C27.4479 22.4834 27.5134 22.6437 27.5788 22.8042C27.6406 22.9559 27.7039 23.1069 27.7681 23.2576C28.0029 23.8146 28.1212 24.2908 27.9551 24.8878C27.6406 25.6061 26.9556 25.8587 26.2773 26.1279C26.1926 26.1626 26.1078 26.1973 26.0231 26.2322C25.7718 26.3349 25.519 26.4337 25.2656 26.5312C25.2237 26.5476 25.1818 26.5639 25.1386 26.5807C25.0155 26.6283 24.892 26.6746 24.7683 26.7205C24.7139 26.7417 24.7139 26.7417 24.6583 26.7632C24.2081 26.9262 23.7853 26.8893 23.3516 26.6953C23.24 26.6258 23.1301 26.5534 23.0234 26.4766C22.9248 26.4033 22.9248 26.4033 22.8047 26.3672C22.6635 26.402 22.6635 26.402 22.5152 26.4774C22.4559 26.5048 22.3966 26.5322 22.3354 26.5604C22.2378 26.6069 22.2378 26.6069 22.1382 26.6543C22.0329 26.7032 21.9275 26.7517 21.822 26.8003C21.7457 26.8354 21.6695 26.8706 21.5933 26.906C21.1326 27.1192 20.6679 27.323 20.203 27.5267C20.0603 27.5892 19.9178 27.652 19.7753 27.7148C19.3388 27.9068 18.9014 28.0964 18.4613 28.28C18.4234 28.296 18.3855 28.3119 18.3465 28.3284C17.6967 28.5968 16.8722 28.6078 16.2183 28.3462C16.172 28.3248 16.1258 28.3033 16.0781 28.2812C16.0353 28.2621 15.9924 28.2429 15.9482 28.2231C15.282 27.89 14.796 27.3298 14.5528 26.63C14.4177 26.2184 14.3369 25.7986 14.2569 25.3738C14.2401 25.2861 14.2232 25.1985 14.2063 25.1109C14.1605 24.873 14.1153 24.635 14.0701 24.397C14.0218 24.1425 13.9729 23.888 13.924 23.6336C13.8406 23.1985 13.7575 22.7633 13.6746 22.3281C13.5562 21.7065 13.4372 21.0849 13.3181 20.4634C13.0526 19.0773 12.7879 17.691 12.5234 16.3047C12.5142 16.2561 12.5049 16.2076 12.4954 16.1576C12.4178 15.7508 12.3402 15.344 12.2626 14.9373C12.1855 14.533 12.1084 14.1286 12.0311 13.7244C12.0239 13.6865 12.0167 13.6487 12.0092 13.6097C11.9808 13.4606 11.9523 13.3116 11.9238 13.1626C11.8367 12.7068 11.7499 12.2509 11.6634 11.795C11.615 11.5403 11.5664 11.2856 11.5178 11.0309C11.4957 10.9151 11.4737 10.7993 11.4519 10.6835C11.4225 10.5282 11.3929 10.3729 11.3631 10.2177C11.3548 10.1729 11.3464 10.1282 11.3378 10.082C11.2592 9.67549 11.1621 9.44571 10.8315 9.18164C10.7997 9.15545 10.7678 9.12926 10.735 9.10228C10.6388 9.02341 10.5421 8.94526 10.4453 8.86719C10.345 8.78519 10.2448 8.70317 10.1445 8.62109C10.096 8.58162 10.0475 8.54214 9.99756 8.50146C9.82636 8.3607 9.65719 8.21772 9.48829 8.07422C9.26257 7.88273 9.0363 7.69197 8.80811 7.50342C8.7625 7.4657 8.71689 7.42799 8.6699 7.38913C8.3931 7.17375 8.13849 7.02545 7.8009 6.92933C7.76182 6.91772 7.72273 6.9061 7.68247 6.89413C7.55325 6.85586 7.42382 6.8184 7.29438 6.78094C7.20258 6.75394 7.11081 6.72689 7.01904 6.6998C6.77404 6.6276 6.52885 6.55609 6.28361 6.4847C6.03074 6.41094 5.77807 6.33649 5.52538 6.26211C4.65474 6.00608 3.78343 5.7524 2.91147 5.50092C2.84961 5.48303 2.78774 5.46515 2.724 5.44672C2.44804 5.36696 2.17198 5.28758 1.89562 5.20924C1.80029 5.18187 1.70497 5.15448 1.60965 5.12708C1.56856 5.11562 1.52746 5.10417 1.48512 5.09238C0.938333 4.93392 0.461284 4.69128 0.170903 4.18457C-0.187688 3.50776 0.0248357 2.80553 0.227407 2.11483C0.396923 1.56399 0.587281 1.06901 1.10059 0.757629C1.77905 0.410916 2.46227 0.534129 3.16333 0.75357ZM1.36719 1.86719C1.27136 2.06884 1.21043 2.2742 1.15186 2.48926C1.13533 2.5441 1.1188 2.59895 1.10177 2.65546C0.994329 3.02771 0.903032 3.37022 1.05958 3.74023C1.3705 4.06596 1.88943 4.15876 2.3129 4.28177C2.36717 4.29777 2.42143 4.31376 2.47735 4.33024C2.59547 4.36503 2.71362 4.3997 2.83181 4.43426C3.0219 4.48989 3.21186 4.54593 3.40179 4.60207C4.0488 4.7931 4.69623 4.98262 5.3442 5.17033C5.69734 5.27265 6.05032 5.37548 6.40321 5.47861C6.6623 5.55428 6.92158 5.62925 7.18101 5.70371C7.34454 5.75082 7.50786 5.79858 7.67115 5.84652C7.747 5.86865 7.82294 5.89051 7.89895 5.91207C8.47203 6.07489 8.96796 6.2792 9.40284 6.69678C9.63439 6.91283 9.87361 7.11438 10.12 7.31329C10.2385 7.41032 10.3555 7.50828 10.4716 7.60809C10.5036 7.63556 10.5356 7.66303 10.5686 7.69133C10.6311 7.74508 10.6934 7.79903 10.7556 7.8532C10.8892 7.96798 10.9872 8.04523 11.1563 8.10156C11.6372 7.629 11.6372 7.629 12.0896 7.12936C12.2387 6.95799 12.3931 6.79167 12.5474 6.625C12.5772 6.59279 12.607 6.56058 12.6377 6.52739C12.709 6.45051 12.7803 6.37369 12.8516 6.29688C12.7143 6.11636 12.58 5.97016 12.4004 5.83203C12.1544 5.63976 11.911 5.44478 11.669 5.24756C11.5936 5.18632 11.5183 5.12508 11.4429 5.06384C11.287 4.93698 11.1312 4.80992 10.9755 4.68274C10.9371 4.65138 10.8986 4.62002 10.859 4.58772C10.7863 4.52841 10.7137 4.46904 10.6411 4.40958C10.5735 4.35453 10.5057 4.29983 10.4376 4.24548C10.3691 4.19061 10.3013 4.13481 10.2343 4.07816C9.69671 3.64236 8.95931 3.51229 8.30588 3.32175C8.20897 3.29333 8.11207 3.26489 8.01517 3.23643C7.75818 3.16101 7.50112 3.08582 7.24404 3.0107C6.8215 2.88721 6.39903 2.76346 5.97655 2.63973C5.87234 2.60921 5.76812 2.5787 5.66389 2.5482C5.04973 2.36847 4.4361 2.18723 3.82364 2.00177C3.7112 1.96787 3.59876 1.93397 3.48632 1.90007C3.29239 1.84157 3.09872 1.78226 2.90518 1.72247C2.06133 1.43459 2.06133 1.43459 1.36719 1.86719ZM17.2813 6.95312C17.0065 7.21681 16.7742 7.51808 16.5361 7.81445C16.0584 8.40024 16.0584 8.40024 15.7466 8.46387C15.4065 8.39151 15.1478 8.12404 14.8921 7.8999C14.8248 7.84161 14.7574 7.78336 14.69 7.72516C14.6568 7.69645 14.6236 7.66774 14.5893 7.63816C14.4477 7.51646 14.3046 7.3968 14.1606 7.27783C14.1149 7.23998 14.0691 7.20212 14.022 7.16312C13.892 7.06356 13.7592 6.97969 13.6172 6.89844C13.5624 6.95661 13.5075 7.01479 13.4527 7.07297C13.4171 7.11074 13.3815 7.14851 13.3448 7.18743C13.2661 7.27102 13.1875 7.35468 13.109 7.43841C12.9118 7.64852 12.714 7.85781 12.5136 8.06482C12.4784 8.10158 12.4431 8.13834 12.4068 8.17621C12.3398 8.2461 12.2724 8.31558 12.2045 8.38463C12.0062 8.58755 12.0062 8.58755 11.9766 8.86719C12.0127 8.86719 12.0488 8.86719 12.0859 8.86719C12.2937 9.82146 12.4762 10.7807 12.661 11.7396C12.7081 11.9838 12.7553 12.2281 12.8025 12.4723C12.8831 12.8897 12.9637 13.3071 13.0442 13.7245C13.1383 14.2124 13.2325 14.7002 13.3268 15.188C13.725 17.2482 14.1229 19.3084 14.5135 21.37C14.5583 21.6061 14.6031 21.8421 14.6479 22.0781C14.6694 22.1914 14.6909 22.3046 14.7124 22.4178C14.7264 22.4914 14.7404 22.565 14.7544 22.6386C14.8409 23.0941 14.9268 23.5497 15.0122 24.0053C15.0602 24.2608 15.1086 24.5161 15.1572 24.7714C15.1792 24.8873 15.2009 25.0033 15.2224 25.1193C15.2514 25.2757 15.2812 25.432 15.3111 25.5882C15.3232 25.6549 15.3232 25.6549 15.3355 25.723C15.4504 26.3116 15.706 26.8519 16.2046 27.2046C16.6567 27.4811 17.0802 27.5763 17.6094 27.5156C18.1737 27.3567 18.7081 27.1004 19.2398 26.857C19.4778 26.7481 19.7164 26.6404 19.955 26.5325C20.0043 26.5102 20.0537 26.4878 20.1045 26.4648C20.6182 26.2323 21.1327 26.0015 21.6483 25.7732C21.7464 25.7297 21.8445 25.686 21.9424 25.6421C22.0793 25.5808 22.2165 25.5201 22.3537 25.4595C22.3939 25.4414 22.434 25.4233 22.4753 25.4046C22.7123 25.301 22.9262 25.2371 23.1875 25.2188C23.3842 25.2965 23.4516 25.3684 23.5669 25.5469C23.7016 25.7428 23.7803 25.8063 24.0078 25.875C24.3446 25.8376 24.658 25.7133 24.9672 25.5813C25.0094 25.5636 25.0516 25.5459 25.0951 25.5277C25.1836 25.4907 25.272 25.4534 25.3603 25.4159C25.4947 25.3589 25.6294 25.3024 25.7641 25.246C25.8505 25.2097 25.937 25.1733 26.0233 25.1369C26.0632 25.1202 26.103 25.1034 26.144 25.0862C26.6526 24.891 26.6526 24.891 27.0156 24.5078C27.0465 24.151 26.971 23.9017 26.8311 23.5762C26.8116 23.5292 26.7921 23.4823 26.7721 23.4339C26.7081 23.28 26.6431 23.1266 26.5781 22.9731C26.533 22.865 26.4879 22.7568 26.4429 22.6486C26.3508 22.4272 26.2583 22.2059 26.1655 21.9848C25.9879 21.5612 25.814 21.1361 25.6402 20.7109C25.5506 20.4918 25.4607 20.2728 25.3707 20.0538C25.3349 19.9666 25.2992 19.8794 25.2634 19.7922C25.2277 19.7052 25.192 19.6182 25.1563 19.5312C24.7813 18.6179 24.4066 17.7045 24.0324 16.7909C24.0114 16.7398 23.9905 16.6887 23.9689 16.636C23.864 16.3797 23.7592 16.1233 23.6547 15.8668C23.4811 15.4409 23.3073 15.0153 23.1284 14.5916C23.0598 14.4292 22.9918 14.2665 22.924 14.1038C22.8927 14.0294 22.8612 13.9552 22.8293 13.8812C22.7859 13.7804 22.7437 13.6791 22.7015 13.5778C22.6777 13.5218 22.6539 13.4658 22.6294 13.4081C22.5682 13.1746 22.5788 12.9676 22.7003 12.755C22.7367 12.7159 22.7367 12.7159 22.7737 12.6761C22.8002 12.6465 22.8267 12.6169 22.8539 12.5864C22.8817 12.5569 22.9094 12.5274 22.938 12.4971C23.2594 12.1496 23.2594 12.1496 23.355 11.6938C23.173 11.0623 22.4067 10.5922 21.9179 10.197C21.7103 10.0243 21.5129 9.84115 21.3142 9.65823C21.1685 9.52743 21.0192 9.40353 20.8667 9.28076C20.6187 9.08074 20.3845 8.87013 20.1514 8.65327C19.9265 8.44522 19.6915 8.25211 19.4527 8.06012C19.3004 7.93397 19.1556 7.80208 19.0107 7.66748C18.7901 7.46549 18.565 7.27207 18.3306 7.08643C18.2873 7.05117 18.2873 7.05117 18.2432 7.0152C17.9257 6.76869 17.619 6.71897 17.2813 6.95312Z" fill="white"/>
<path d="M19.6465 15.522C20.4083 16.1571 20.6251 17.0146 20.9289 17.9227C20.9639 18.0269 20.999 18.1312 21.0341 18.2354C21.1262 18.5093 21.2181 18.7833 21.3099 19.0572C21.4196 19.3842 21.5296 19.7111 21.6395 20.0379C21.7285 20.3025 21.8173 20.5671 21.9057 20.8318C22.1188 21.4699 22.1188 21.4699 22.3373 22.1062C22.3905 22.2594 22.4433 22.4127 22.4959 22.5661C22.531 22.6674 22.567 22.7684 22.603 22.8694C22.7978 23.438 22.7978 23.438 22.6953 23.7422C22.5322 23.9717 22.289 24.0612 22.0382 24.1707C21.9947 24.1902 21.9511 24.2097 21.9063 24.2297C21.7639 24.2933 21.6212 24.3561 21.4785 24.4189C21.3798 24.4628 21.2811 24.5067 21.1824 24.5507C20.9326 24.6617 20.6825 24.7722 20.4323 24.8823C20.2965 24.942 20.1609 25.0018 20.0252 25.0617C19.5909 25.2533 19.1565 25.4447 18.7206 25.6326C18.5994 25.6849 18.4785 25.7378 18.358 25.7914C17.9177 25.9833 17.5099 26.1064 17.0375 25.9359C16.7817 25.7931 16.6121 25.6067 16.5156 25.3281C16.3292 24.5718 16.2364 23.7902 16.1202 23.021C16.1039 22.9135 16.0876 22.806 16.0713 22.6985C16.026 22.3996 15.9808 22.1007 15.9358 21.8018C15.8781 21.4182 15.8199 21.0347 15.7612 20.6513C15.7155 20.3525 15.6702 20.0536 15.6253 19.7547C15.5987 19.5772 15.5718 19.3997 15.5445 19.2223C15.2074 17.0275 15.2074 17.0275 15.762 16.1618C16.2238 15.543 16.8701 15.3158 17.6094 15.184C18.3218 15.084 19.0348 15.0972 19.6465 15.522ZM16.9531 16.4141C17.0375 16.6538 17.2253 16.7711 17.4214 16.9165C18.3726 17.647 18.7408 18.4227 19.1064 19.5381C19.1437 19.6499 19.1811 19.7618 19.2185 19.8736C19.2974 20.1096 19.376 20.3457 19.4544 20.5819C19.6448 21.1545 19.8401 21.7255 20.0348 22.2967C20.1351 22.591 20.2352 22.8853 20.3352 23.1797C20.3689 23.2789 20.4026 23.3781 20.4363 23.4773C20.4602 23.5474 20.484 23.6174 20.5078 23.6875C20.5861 23.6618 20.6644 23.636 20.7427 23.6102C20.7863 23.5959 20.8299 23.5815 20.8748 23.5667C21.0317 23.5125 21.1812 23.4469 21.3315 23.3765C21.3829 23.3526 21.4343 23.3287 21.4873 23.304C21.525 23.2862 21.5627 23.2684 21.6016 23.25C21.5351 22.9265 21.4524 22.6148 21.347 22.3019C21.3328 22.2593 21.3187 22.2166 21.3041 22.1726C21.2576 22.0326 21.2107 21.8928 21.1638 21.7529C21.1308 21.6539 21.0978 21.5549 21.0648 21.4559C20.9956 21.2482 20.9263 21.0407 20.8567 20.8331C20.7691 20.5714 20.6818 20.3095 20.5946 20.0476C20.4139 19.505 20.2318 18.963 20.0481 18.4216C19.9932 18.2596 19.9387 18.0976 19.8847 17.9354C19.8207 17.7435 19.7552 17.5521 19.6894 17.3608C19.6722 17.3083 19.6549 17.2558 19.6372 17.2017C19.4879 16.7764 19.259 16.4374 18.8535 16.2227C18.2549 15.9955 17.5222 16.1689 16.9531 16.4141ZM16.3516 17.3437C16.3399 17.7455 16.3847 18.1234 16.4461 18.52C16.4561 18.5869 16.4662 18.6537 16.4765 18.7226C16.5039 18.9045 16.5317 19.0864 16.5596 19.2683C16.5888 19.4592 16.6176 19.6501 16.6464 19.8411C16.6949 20.1615 16.7436 20.4818 16.7925 20.802C16.8614 21.2534 16.9298 21.7047 16.9981 22.1562C17.0513 22.5074 17.1046 22.8586 17.158 23.2098C17.1637 23.2474 17.1694 23.2849 17.1753 23.3236C17.2131 23.5727 17.251 23.8217 17.289 24.0708C17.2985 24.1335 17.3081 24.1961 17.3179 24.2607C17.3311 24.3472 17.3311 24.3472 17.3446 24.4354C17.3522 24.4853 17.3598 24.5352 17.3677 24.5867C17.3904 24.7252 17.4169 24.8625 17.4453 25C17.7283 24.9673 17.9558 24.8767 18.2122 24.7605C18.253 24.7424 18.2938 24.7243 18.3359 24.7056C18.4653 24.648 18.5944 24.5899 18.7236 24.5317C18.8117 24.4924 18.8998 24.4532 18.9879 24.4139C19.203 24.318 19.418 24.2216 19.6328 24.125C19.2704 22.988 18.8981 21.8541 18.5186 20.7227C18.4579 20.5419 18.3975 20.3611 18.3377 20.1801C18.2695 19.9742 18.2003 19.7686 18.131 19.5631C18.1109 19.5017 18.0907 19.4404 18.07 19.3772C17.7563 18.4557 17.1944 17.885 16.4062 17.3437C16.3882 17.3437 16.3701 17.3437 16.3516 17.3437Z" fill="white"/>
<path d="M3.85313 8.10733C4.06155 8.26518 4.20961 8.45092 4.36134 8.66211C4.38924 8.70021 4.41714 8.73832 4.44589 8.77757C5.47681 10.2011 6.81907 12.1087 6.54609 13.9548C6.37814 14.8159 5.93888 15.5267 5.24018 16.0528C4.41986 16.583 3.4712 16.7768 2.50996 16.5739C1.57456 16.3491 0.882525 15.8498 0.3821 15.0338C-0.0419899 14.2769 -0.139949 13.3579 0.0644956 12.5161C0.449634 11.1852 1.2379 9.95524 2.04395 8.84326C2.08978 8.77967 2.08978 8.77967 2.13653 8.7148C2.55206 8.15602 3.15694 7.6448 3.85313 8.10733ZM3.22657 8.97656C2.60048 9.70945 2.09263 10.5338 1.64063 11.3828C1.62295 11.4155 1.60526 11.4482 1.58704 11.4819C1.15149 12.2907 0.829455 13.0884 1.01878 14.0114C1.21411 14.6272 1.62116 15.1228 2.18751 15.4297C2.84995 15.7136 3.53178 15.7238 4.21095 15.4844C4.76696 15.2374 5.17436 14.8226 5.41407 14.2642C5.7095 13.4958 5.55977 12.7969 5.24328 12.0602C4.82745 11.15 4.3042 10.3059 3.71876 9.4961C3.69444 9.46233 3.67012 9.42857 3.64506 9.39378C3.52084 9.22623 3.40225 9.09043 3.22657 8.97656Z" fill="white"/>
<path d="M14.4922 11.7109C14.6734 11.8591 14.7431 11.9776 14.796 12.2036C14.8091 12.258 14.8223 12.3124 14.8358 12.3685C14.8556 12.4562 14.8556 12.4562 14.8759 12.5458C14.8901 12.6063 14.9044 12.6669 14.9191 12.7293C14.949 12.8574 14.9786 12.9855 15.0078 13.1138C15.0524 13.3093 15.0984 13.5044 15.1446 13.6996C15.1736 13.8242 15.2025 13.9489 15.2313 14.0736C15.245 14.1317 15.2587 14.1897 15.2727 14.2496C15.4421 15 15.4421 15 15.2886 15.3203C15.1109 15.459 14.9974 15.4603 14.7776 15.4607C14.6088 15.4176 14.549 15.3443 14.4375 15.2109C14.3775 15.0475 14.3775 15.0475 14.3309 14.8535C14.3177 14.8002 14.3177 14.8002 14.3043 14.7459C14.2853 14.6685 14.2666 14.591 14.2482 14.5135C14.218 14.3874 14.1864 14.2617 14.1545 14.136C14.098 13.9126 14.0431 13.6889 13.989 13.4649C13.9665 13.3726 13.9438 13.2804 13.9207 13.1883C13.8868 13.0527 13.8539 12.9169 13.8212 12.781C13.8108 12.7404 13.8005 12.6997 13.7898 12.6579C13.724 12.378 13.7264 12.1581 13.7813 11.875C13.9656 11.6153 14.205 11.6454 14.4922 11.7109Z" fill="white"/>
<path d="M13.8359 9.30469C13.9968 9.51812 14.0581 9.75282 14.1196 10.0088C14.1342 10.0647 14.1342 10.0647 14.149 10.1218C14.2086 10.3635 14.2375 10.5853 14.2187 10.8359C14.11 10.9956 14.0311 11.0881 13.8393 11.1356C13.6229 11.1508 13.5421 11.1364 13.3653 10.9972C13.2135 10.8102 13.158 10.639 13.1079 10.4087C13.0987 10.3719 13.0895 10.335 13.08 10.2971C13.0061 9.98196 12.9395 9.65127 13.1113 9.36279C13.3564 9.13818 13.5323 9.18323 13.8359 9.30469Z" fill="white"/>
</g>
<defs>
<clipPath id="clip0_1_214">
<rect width="28" height="28" fill="white" transform="translate(0 0.5)"/>
</clipPath>
</defs>
</svg>
