<svg width="21" height="29" viewBox="0 0 21 29" fill="none" xmlns="http://www.w3.org/2000/svg">
<g clip-path="url(#clip0_1_222)">
<path d="M2.29898 0.921613C2.35699 0.921245 2.41501 0.920878 2.47477 0.9205C2.66649 0.919461 2.85819 0.919247 3.04991 0.919129C3.18334 0.918778 3.31677 0.91841 3.45021 0.918026C3.72994 0.917371 4.00968 0.917169 4.28942 0.917233C4.64746 0.917245 5.00547 0.915752 5.36351 0.913868C5.63914 0.91265 5.91477 0.91243 6.1904 0.912488C6.32238 0.912359 6.45435 0.911876 6.58632 0.911029C6.77115 0.909955 6.95592 0.910273 7.14075 0.910932C7.195 0.910317 7.24925 0.909702 7.30514 0.909069C7.70354 0.912665 7.99599 0.998686 8.29841 1.2637C8.32788 1.2993 8.35735 1.3349 8.38771 1.37158C8.41802 1.40704 8.44833 1.4425 8.47957 1.47904C8.63816 1.70921 8.68138 1.90245 8.6724 2.17985C8.67084 2.24139 8.66928 2.30293 8.66767 2.36634C8.66476 2.46546 8.66476 2.46546 8.66179 2.56659C8.65996 2.70751 8.65837 2.84843 8.65698 2.98935C8.65471 3.21086 8.65134 3.43215 8.64343 3.65353C8.58436 4.43372 8.58436 4.43372 8.79801 5.16125C8.98254 5.3573 9.19826 5.47883 9.44066 5.59138C9.58176 5.65929 9.70251 5.74837 9.82774 5.84186C9.91164 5.90019 9.99559 5.95843 10.0796 6.0166C10.4331 6.26261 10.7841 6.51169 11.1323 6.76514C11.4679 7.00923 11.8075 7.24643 12.1509 7.47949C12.4977 7.71495 12.8393 7.95569 13.1758 8.2056C13.3941 8.36741 13.6151 8.52476 13.8379 8.68019C14.2438 8.96339 14.6367 9.25432 15.0117 9.57812C15.055 9.61535 15.0983 9.65257 15.1429 9.69092C15.2839 9.81501 15.4216 9.94181 15.5586 10.0703C15.5873 10.0971 15.616 10.124 15.6455 10.1516C16.4402 10.9011 17.0731 11.7621 17.6367 12.6953C17.6662 12.744 17.6662 12.744 17.6962 12.7937C18.9059 14.8349 19.2045 17.0968 19.1974 19.4211C19.1968 19.6637 19.1973 19.9064 19.1977 20.149C19.1981 20.555 19.1975 20.9611 19.1965 21.3672C19.1953 21.835 19.1957 22.3029 19.1969 22.7707C19.1979 23.1755 19.198 23.5802 19.1975 23.985C19.1971 24.2254 19.1971 24.4659 19.1978 24.7063C19.1984 24.9317 19.198 25.1571 19.1967 25.3825C19.1964 25.4647 19.1965 25.5469 19.197 25.6291C19.2009 26.3531 19.0782 26.9248 18.5664 27.4609C18.0648 27.9398 17.5174 28.0962 16.8355 28.0903C16.7742 28.0906 16.713 28.091 16.6498 28.0913C16.446 28.0922 16.2422 28.0915 16.0384 28.0908C15.8917 28.0911 15.7449 28.0915 15.5982 28.092C15.2419 28.0929 14.8856 28.0927 14.5294 28.0921C14.2397 28.0916 13.9499 28.0915 13.6602 28.0918C13.6189 28.0918 13.5776 28.0918 13.535 28.0919C13.451 28.0919 13.367 28.092 13.283 28.0921C12.4967 28.0927 11.7104 28.092 10.924 28.0908C10.2502 28.0898 9.57644 28.09 8.90265 28.091C8.119 28.0922 7.33536 28.0926 6.55172 28.092C6.46806 28.0919 6.3844 28.0918 6.30073 28.0918C6.25958 28.0917 6.21842 28.0917 6.17602 28.0917C5.88686 28.0915 5.59771 28.0918 5.30856 28.0923C4.95587 28.0929 4.60319 28.0928 4.25051 28.0916C4.07078 28.091 3.89106 28.0909 3.71133 28.0915C3.51602 28.0921 3.32076 28.0914 3.12545 28.0903C3.04124 28.091 3.04124 28.091 2.95533 28.0918C2.3413 28.0851 1.8395 27.8857 1.39454 27.4609C0.80584 26.8443 0.76079 26.1796 0.765204 25.3677C0.764952 25.2664 0.764604 25.1651 0.76417 25.0639C0.763259 24.7867 0.763707 24.5096 0.764386 24.2325C0.764882 23.9332 0.764116 23.6339 0.763515 23.3345C0.762543 22.7487 0.762752 22.1628 0.763387 21.577C0.763881 21.1009 0.763948 20.6248 0.76371 20.1487C0.763676 20.0809 0.763643 20.0131 0.763608 19.9433C0.763538 19.8056 0.763467 19.6678 0.763395 19.5301C0.76279 18.2761 0.763417 17.0221 0.764564 15.768C0.765602 14.6236 0.765509 13.4791 0.764463 12.3347C0.763292 11.0482 0.762831 9.76169 0.763503 8.47519C0.763573 8.33804 0.763642 8.20089 0.76371 8.06373C0.763743 7.99625 0.763777 7.92877 0.763812 7.85924C0.764001 7.38361 0.763682 6.90799 0.763167 6.43236C0.762554 5.85289 0.762719 5.27342 0.763885 4.69395C0.76446 4.39828 0.764684 4.10261 0.763962 3.80694C0.76331 3.53631 0.763668 3.26569 0.764832 2.99506C0.765076 2.89714 0.764952 2.79922 0.764421 2.7013C0.763756 2.56817 0.764439 2.4351 0.765454 2.30197C0.764942 2.26398 0.76443 2.226 0.763902 2.18686C0.769164 1.84147 0.894046 1.56399 1.11918 1.30707C1.15478 1.2776 1.19038 1.24813 1.22706 1.21777C1.26252 1.18746 1.29798 1.15715 1.33452 1.12592C1.64468 0.91221 1.93423 0.921281 2.29898 0.921613ZM1.77736 1.97656C1.67309 2.15867 1.65447 2.31453 1.65556 2.52201C1.65557 2.57454 1.65558 2.62708 1.65559 2.6812C1.65615 2.73721 1.65672 2.79322 1.6573 2.85092C1.65746 2.9088 1.65761 2.96668 1.65777 3.02631C1.65838 3.21074 1.65975 3.39516 1.66115 3.57959C1.66169 3.70481 1.66219 3.83003 1.66264 3.95525C1.66385 4.26184 1.66573 4.56842 1.66798 4.875C1.95673 4.875 2.24548 4.875 2.54298 4.875C2.54503 4.79795 2.54707 4.7209 2.54918 4.64151C2.55277 4.54047 2.5564 4.43942 2.56007 4.33838C2.56131 4.28759 2.56254 4.2368 2.56381 4.18446C2.56575 4.13565 2.56769 4.08683 2.56968 4.03653C2.57112 3.99157 2.57255 3.9466 2.57402 3.90028C2.60265 3.75618 2.64691 3.70629 2.76173 3.61719C2.86769 3.5954 2.86769 3.5954 2.98048 3.59668C3.03631 3.59605 3.03631 3.59605 3.09327 3.5954C3.23255 3.62404 3.27504 3.67073 3.36329 3.78125C3.38694 3.90028 3.38694 3.90028 3.39128 4.03653C3.39419 4.10976 3.39419 4.10976 3.39715 4.18446C3.39839 4.23526 3.39962 4.28605 3.40089 4.33838C3.40369 4.41552 3.40369 4.41552 3.40655 4.49422C3.41106 4.62112 3.41461 4.74806 3.41798 4.875C3.70673 4.875 3.99548 4.875 4.29298 4.875C4.29503 4.79795 4.29707 4.7209 4.29918 4.64151C4.30277 4.54047 4.3064 4.43942 4.31007 4.33838C4.3113 4.28759 4.31254 4.2368 4.31381 4.18446C4.31575 4.13565 4.31769 4.08683 4.31968 4.03653C4.32112 3.99157 4.32255 3.9466 4.32402 3.90028C4.35265 3.75618 4.39691 3.70629 4.51173 3.61719C4.61769 3.5954 4.61769 3.5954 4.73048 3.59668C4.78631 3.59605 4.78631 3.59605 4.84327 3.5954C4.98255 3.62404 5.02504 3.67073 5.11329 3.78125C5.13694 3.90028 5.13694 3.90028 5.14128 4.03653C5.14322 4.08535 5.14516 4.13417 5.14715 4.18446C5.149 4.26065 5.149 4.26065 5.15089 4.33838C5.15276 4.38981 5.15463 4.44123 5.15655 4.49422C5.16106 4.62112 5.16461 4.74806 5.16798 4.875C5.45673 4.875 5.74548 4.875 6.04298 4.875C6.04503 4.79795 6.04707 4.7209 6.04918 4.64151C6.05277 4.54047 6.0564 4.43942 6.06007 4.33838C6.0613 4.28759 6.06254 4.2368 6.06381 4.18446C6.06672 4.11124 6.06672 4.11124 6.06968 4.03653C6.07112 3.99157 6.07255 3.9466 6.07402 3.90028C6.10265 3.75618 6.1469 3.70629 6.26173 3.61719C6.36769 3.5954 6.36769 3.5954 6.48048 3.59668C6.53631 3.59605 6.53631 3.59605 6.59327 3.5954C6.73255 3.62404 6.77504 3.67073 6.86329 3.78125C6.88694 3.90028 6.88694 3.90028 6.89128 4.03653C6.89322 4.08535 6.89515 4.13417 6.89715 4.18446C6.89839 4.23526 6.89962 4.28605 6.90089 4.33838C6.90276 4.38981 6.90463 4.44123 6.90655 4.49422C6.91106 4.62112 6.91461 4.74806 6.91798 4.875C7.20673 4.875 7.49548 4.875 7.79298 4.875C7.79704 4.50717 7.80002 4.13935 7.80199 3.7715C7.80282 3.64643 7.80394 3.52135 7.80536 3.39628C7.80735 3.21627 7.80828 3.03628 7.809 2.85626C7.80985 2.80054 7.8107 2.74481 7.81157 2.6874C7.81164 2.39546 7.80895 2.16592 7.62892 1.92188C7.37864 1.78209 7.12628 1.79669 6.84771 1.79748C6.77163 1.79706 6.77163 1.79706 6.69402 1.79663C6.52663 1.79587 6.35926 1.79593 6.19188 1.79605C6.07535 1.79584 5.95882 1.7956 5.84229 1.79534C5.59814 1.79493 5.35399 1.79495 5.10984 1.79524C4.79715 1.79555 4.48449 1.79463 4.17181 1.79336C3.93118 1.79255 3.69055 1.79251 3.44992 1.79268C3.33465 1.79265 3.21937 1.79236 3.10409 1.79181C2.94283 1.79114 2.78159 1.79151 2.62033 1.79214C2.5491 1.79151 2.5491 1.79151 2.47644 1.79087C2.20569 1.79322 2.00603 1.81526 1.77736 1.97656ZM1.66798 5.75C1.66548 8.30543 1.66355 10.8609 1.6624 13.4163C1.66226 13.718 1.66212 14.0196 1.66197 14.3213C1.66194 14.3813 1.66192 14.4414 1.66189 14.5033C1.66141 15.4758 1.66055 16.4483 1.65954 17.4209C1.65852 18.4187 1.65791 19.4166 1.65769 20.4144C1.65754 21.0302 1.65707 21.6459 1.65618 22.2617C1.6556 22.6839 1.65543 23.1061 1.65557 23.5283C1.65564 23.7719 1.65553 24.0155 1.65494 24.2591C1.65441 24.4823 1.65439 24.7055 1.65476 24.9286C1.6548 25.0092 1.65467 25.0898 1.65432 25.1704C1.64124 25.9848 1.64124 25.9848 1.99611 26.6953C2.46001 27.1559 2.91648 27.1958 3.54812 27.1948C3.60522 27.1949 3.66233 27.1951 3.72116 27.1952C3.91247 27.1955 4.10377 27.1955 4.29508 27.1954C4.43226 27.1956 4.56944 27.1958 4.70661 27.196C5.04055 27.1964 5.37449 27.1966 5.70843 27.1966C5.97995 27.1967 6.25147 27.1968 6.523 27.1969C7.29329 27.1974 8.06358 27.1977 8.83388 27.1976C8.89613 27.1976 8.89613 27.1976 8.95964 27.1976C9.02197 27.1976 9.02197 27.1976 9.08556 27.1976C9.75889 27.1976 10.4322 27.1981 11.1055 27.1989C11.7974 27.1997 12.4892 27.2001 13.1811 27.2C13.5693 27.2 13.9575 27.2001 14.3457 27.2007C14.7109 27.2013 15.076 27.2013 15.4412 27.2009C15.5751 27.2008 15.709 27.2009 15.843 27.2013C16.026 27.2017 16.209 27.2014 16.392 27.201C16.4448 27.2013 16.4976 27.2016 16.5521 27.2019C17.0648 27.1993 17.5129 27.1494 17.8899 26.7697C18.2162 26.408 18.2997 26.0529 18.2999 25.5688C18.3002 25.4794 18.3002 25.4794 18.3004 25.3882C18.3003 25.3236 18.3002 25.259 18.3001 25.1924C18.3002 25.1237 18.3002 25.055 18.3003 24.9843C18.3006 24.7962 18.3005 24.6081 18.3003 24.4201C18.3002 24.2221 18.3003 24.024 18.3004 23.826C18.3005 23.4927 18.3004 23.1594 18.3001 22.8261C18.2998 22.4436 18.2999 22.0611 18.3002 21.6786C18.3005 21.3484 18.3005 21.0181 18.3003 20.6879C18.3003 20.4915 18.3002 20.2951 18.3004 20.0987C18.317 18.498 18.317 18.498 18.146 16.9097C18.1318 16.8278 18.1318 16.8278 18.1172 16.7444C17.5766 13.7864 15.8918 11.2744 13.4436 9.5585C13.2776 9.44138 13.1136 9.32171 12.9494 9.202C12.5282 8.89513 12.101 8.59835 11.6699 8.30567C11.3711 8.10215 11.0783 7.89203 10.788 7.67661C10.4621 7.43553 10.1296 7.20413 9.79696 6.9725C9.43432 6.71958 9.07516 6.46215 8.71779 6.20184C8.68007 6.17441 8.64234 6.14698 8.60347 6.11871C8.57091 6.09495 8.53835 6.07118 8.5048 6.0467C8.46841 6.02097 8.43203 5.99525 8.39454 5.96875C8.35101 5.93156 8.30748 5.89437 8.26263 5.85606C8.01116 5.69041 7.73282 5.72126 7.44181 5.72517C7.34813 5.72512 7.34813 5.72512 7.25255 5.72507C7.04659 5.72522 6.84067 5.72692 6.63472 5.72864C6.49173 5.72905 6.34875 5.72936 6.20576 5.72958C5.86818 5.73026 5.53061 5.73205 5.19303 5.73425C4.80857 5.73669 4.42411 5.7379 4.03964 5.73899C3.24908 5.74128 2.45853 5.74512 1.66798 5.75Z" fill="white"/>
<path d="M3.41635 10.5333C3.45833 10.5325 3.50031 10.5316 3.54356 10.5307C3.61082 10.5311 3.61082 10.5311 3.67943 10.5315C3.72594 10.5312 3.77245 10.5308 3.82038 10.5305C3.91856 10.5301 4.01675 10.5303 4.11493 10.531C4.26513 10.5317 4.41514 10.5299 4.56533 10.5278C4.66082 10.5277 4.75631 10.5278 4.85179 10.5281C4.89663 10.5274 4.94147 10.5267 4.98767 10.5259C5.29942 10.531 5.29942 10.531 5.46443 10.6904C5.49292 10.7384 5.52141 10.7865 5.55077 10.8359C5.58764 10.8937 5.62451 10.9514 5.66249 11.0109C5.72075 11.1051 5.77854 11.1996 5.83542 11.2947C6.16714 11.8277 6.64329 12.2648 7.08436 12.7065C7.13743 12.7598 7.19049 12.8131 7.24355 12.8665C7.38601 13.0096 7.52865 13.1526 7.67134 13.2956C7.76081 13.3852 7.85024 13.4749 7.93967 13.5645C8.22044 13.8461 8.50133 14.1275 8.78237 14.4087C9.10507 14.7317 9.42741 15.055 9.74944 15.3786C9.99973 15.6301 10.2503 15.8812 10.5012 16.1321C10.6504 16.2814 10.7995 16.4309 10.9483 16.5806C11.0882 16.7215 11.2286 16.8619 11.3692 17.002C11.4445 17.0773 11.5194 17.1529 11.5943 17.2286C12.6093 18.2369 13.7468 18.5929 15.1465 18.6112C15.1928 18.6118 15.2391 18.6125 15.2868 18.6132C15.4802 18.6158 15.6736 18.6184 15.867 18.6194C16.0097 18.6202 16.1523 18.6224 16.2949 18.6248C16.3604 18.6247 16.3604 18.6247 16.4272 18.6245C16.6131 18.6286 16.733 18.634 16.8825 18.7498C16.9997 18.8996 17.0079 18.9691 17.0082 19.1573C17.0092 19.2428 17.0092 19.2428 17.0101 19.3301C17.0094 19.4236 17.0094 19.4236 17.0088 19.5189C17.0093 19.6176 17.0093 19.6176 17.0099 19.7183C17.0107 19.8987 17.0105 20.079 17.0098 20.2593C17.0093 20.4481 17.0098 20.6369 17.0101 20.8257C17.0105 21.1427 17.01 21.4597 17.009 21.7767C17.0078 22.1432 17.0082 22.5096 17.0094 22.8761C17.0104 23.1908 17.0105 23.5055 17.0099 23.8202C17.0096 24.0081 17.0095 24.196 17.0103 24.3839C17.011 24.5934 17.01 24.8029 17.0088 25.0124C17.0094 25.1058 17.0094 25.1058 17.0101 25.2011C17.0095 25.2582 17.0089 25.3152 17.0082 25.374C17.0081 25.4483 17.0081 25.4483 17.008 25.524C16.9703 25.7051 16.9112 25.7675 16.7617 25.875C16.5987 25.9024 16.5987 25.9024 16.4046 25.9024C16.3688 25.9027 16.333 25.903 16.2961 25.9033C16.1763 25.9041 16.0565 25.9033 15.9366 25.9024C15.8506 25.9026 15.7647 25.9029 15.6787 25.9033C15.445 25.9041 15.2113 25.9035 14.9776 25.9026C14.7324 25.9018 14.4873 25.9022 14.2421 25.9024C13.8298 25.9025 13.4175 25.9018 13.0051 25.9005C12.5302 25.8991 12.0552 25.899 11.5802 25.8996C11.1221 25.9002 10.664 25.8999 10.2058 25.8991C10.0116 25.8988 9.81734 25.8988 9.6231 25.899C9.39331 25.8993 9.16355 25.8987 8.93376 25.8976C8.85007 25.8973 8.76637 25.8972 8.68267 25.8975C7.0579 25.9022 5.69949 25.2995 4.53905 24.1763C3.61271 23.2484 2.97206 21.904 2.97241 20.5816C2.97221 20.5397 2.97201 20.4978 2.9718 20.4547C2.9712 20.3149 2.97099 20.1751 2.97078 20.0353C2.97043 19.9348 2.97007 19.8344 2.96969 19.7339C2.96854 19.4048 2.96797 19.0756 2.96743 18.7464C2.9672 18.633 2.96698 18.5196 2.96675 18.4062C2.96571 17.8739 2.96493 17.3416 2.96447 16.8093C2.96394 16.1946 2.9625 15.58 2.96029 14.9653C2.95864 14.4901 2.95783 14.0149 2.95765 13.5398C2.95752 13.2559 2.95703 12.9721 2.95566 12.6883C2.95439 12.4215 2.95415 12.1548 2.95471 11.8881C2.95474 11.7901 2.95439 11.6922 2.95364 11.5942C2.95268 11.4606 2.95306 11.3271 2.95378 11.1936C2.95318 11.1547 2.95258 11.1157 2.95197 11.0756C2.9544 10.8894 2.96857 10.7964 3.08489 10.6479C3.20918 10.5551 3.26359 10.5347 3.41635 10.5333ZM3.85546 11.4375C3.85289 12.5614 3.85097 13.6852 3.84979 14.8091C3.84923 15.331 3.84846 15.8529 3.84721 16.3748C3.84611 16.8302 3.84541 17.2855 3.84517 17.7408C3.84502 17.9815 3.8447 18.2223 3.84389 18.463C3.84314 18.6904 3.84292 18.9177 3.84309 19.1451C3.84306 19.2278 3.84284 19.3105 3.84242 19.3931C3.84026 19.8348 3.85648 20.2695 3.90366 20.7089C3.90784 20.7486 3.91203 20.7882 3.91634 20.8291C4.03478 21.8345 4.49228 22.7251 5.16796 23.4688C5.19806 23.5033 5.22816 23.5378 5.25917 23.5734C6.12291 24.5075 7.37689 24.9252 8.61327 25C8.8674 25.0069 9.12132 25.0069 9.37553 25.0062C9.44944 25.0062 9.52335 25.0062 9.59726 25.0062C9.79574 25.0062 9.99422 25.0059 10.1927 25.0055C10.4009 25.0052 10.6092 25.0052 10.8174 25.0051C11.2107 25.0049 11.6041 25.0045 11.9974 25.0039C12.5296 25.0032 13.0618 25.0029 13.5941 25.0026C14.4312 25.0021 15.2683 25.001 16.1055 25C16.1055 23.1953 16.1055 21.3906 16.1055 19.5312C15.3836 19.5132 14.6617 19.4952 13.918 19.4766C12.8391 19.2227 12.8391 19.2227 12.5063 19.0562C12.4717 19.0404 12.437 19.0246 12.4013 19.0084C11.7744 18.7064 11.2649 18.2153 10.7793 17.728C10.7203 17.6695 10.6613 17.6109 10.6022 17.5524C10.4438 17.3951 10.2858 17.2374 10.128 17.0795C9.99541 16.9468 9.86256 16.8145 9.72971 16.6821C9.41587 16.3693 9.10248 16.056 8.78935 15.7425C8.46818 15.421 8.14621 15.1003 7.82385 14.78C7.54537 14.5032 7.26743 14.2258 6.9899 13.9481C6.8249 13.783 6.65971 13.6181 6.49398 13.4537C6.30886 13.27 6.12468 13.0854 5.94093 12.9004C5.91227 12.8717 5.88362 12.843 5.8541 12.8135C5.5656 12.5235 5.29416 12.2423 5.10015 11.8784C5.0776 11.8396 5.05504 11.8008 5.0318 11.7607C4.99838 11.7031 4.96496 11.6455 4.93052 11.5861C4.77702 11.4292 4.76102 11.4157 4.55769 11.4059C4.47336 11.4081 4.38906 11.4119 4.30488 11.4173C4.24004 11.4195 4.24004 11.4195 4.17389 11.4217C4.06768 11.4255 3.96155 11.4313 3.85546 11.4375Z" fill="white"/>
<path d="M7.66067 7.0386C7.9031 7.08239 8.06907 7.22603 8.25781 7.37695C8.34428 7.44274 8.4308 7.50846 8.51736 7.57413C8.56071 7.60757 8.60406 7.64101 8.64872 7.67546C8.84388 7.82412 9.04448 7.96456 9.24561 8.10498C9.32267 8.15922 9.39971 8.21348 9.47675 8.26776C9.5535 8.32174 9.63026 8.37572 9.70703 8.42969C9.86089 8.53785 10.0147 8.64608 10.1685 8.75439C10.2067 8.78137 10.245 8.80834 10.2845 8.83613C10.6068 9.06372 10.926 9.29549 11.2452 9.52748C11.5411 9.74153 11.8415 9.94786 12.144 10.1523C14.4884 11.7448 16.2684 13.836 16.8472 16.6772C16.8762 16.8823 16.8714 16.9601 16.8027 17.1626C16.707 17.2891 16.707 17.2891 16.5977 17.3437C16.5202 17.3497 16.4424 17.3524 16.3647 17.3534C16.2924 17.3545 16.2924 17.3545 16.2186 17.3556C16.1399 17.3562 16.1399 17.3562 16.0598 17.3568C16.0056 17.3572 15.9515 17.3577 15.8957 17.3581C15.7807 17.3589 15.6657 17.3595 15.5507 17.3599C15.3766 17.3608 15.2026 17.3632 15.0286 17.3656C13.6971 17.3759 13.0152 16.9221 12.0723 15.9984C11.9817 15.9085 11.8912 15.8186 11.8008 15.7285C11.7509 15.6789 11.7009 15.6293 11.6494 15.5782C11.4859 15.4158 11.3227 15.2531 11.1595 15.0905C11.1027 15.0339 11.0459 14.9774 10.9891 14.9208C10.7224 14.6552 10.4559 14.3894 10.1895 14.1234C9.88409 13.8186 9.57827 13.5142 9.27206 13.2102C9.03382 12.9736 8.796 12.7366 8.5585 12.4993C8.41733 12.3582 8.27599 12.2174 8.13419 12.077C6.41378 10.3726 6.41378 10.3726 6.39844 9.10986C6.40251 8.68374 6.43942 8.3186 6.64453 7.9375C6.66963 7.88942 6.69472 7.84134 6.72058 7.79181C7.15111 7.02365 7.15111 7.02365 7.66067 7.0386ZM7.57422 8.15625C7.31812 8.64215 7.27581 9.14096 7.38773 9.67831C7.5939 10.2816 8.17773 10.7369 8.61649 11.1769C8.66965 11.2305 8.7228 11.284 8.77594 11.3375C8.94826 11.5109 9.12085 11.6841 9.29346 11.8573C9.35333 11.9174 9.41319 11.9775 9.47306 12.0375C9.75408 12.3196 10.0352 12.6015 10.3165 12.8833C10.6398 13.2071 10.9626 13.5313 11.285 13.856C11.5355 14.1081 11.7864 14.3598 12.0376 14.6112C12.1871 14.7608 12.3365 14.9107 12.4854 15.061C12.6253 15.2022 12.7658 15.3428 12.9066 15.4831C12.9822 15.5587 13.0573 15.6348 13.1323 15.7109C13.7802 16.3535 14.3487 16.477 15.2407 16.4756C15.4196 16.4742 15.5985 16.472 15.7773 16.4687C15.714 16.0952 15.6196 15.753 15.4766 15.4023C15.448 15.332 15.448 15.332 15.4189 15.2603C14.9924 14.2389 14.4033 13.3882 13.6445 12.5859C13.6004 12.5383 13.5563 12.4906 13.5108 12.4415C12.8741 11.7763 12.1007 11.2775 11.3481 10.7541C11.0906 10.5747 10.8359 10.3915 10.582 10.207C10.1021 9.85862 9.61631 9.51886 9.12993 9.1795C8.91511 9.02932 8.70092 8.87825 8.48682 8.72705C8.44991 8.701 8.413 8.67495 8.37497 8.6481C8.3399 8.62333 8.30484 8.59855 8.26871 8.57303C8.23518 8.5494 8.20165 8.52578 8.1671 8.50144C8.09733 8.45172 8.02802 8.40135 7.95909 8.35046C7.78501 8.20619 7.78501 8.20619 7.57422 8.15625Z" fill="white"/>
<path d="M6.09819 20.5972C6.15339 20.5966 6.2086 20.596 6.26547 20.5954C6.3257 20.5958 6.38594 20.5962 6.448 20.5967C6.51169 20.5963 6.57537 20.5959 6.64099 20.5955C6.85182 20.5946 7.06261 20.5952 7.27344 20.5959C7.41973 20.5958 7.56603 20.5956 7.71233 20.5953C8.01906 20.5949 8.32578 20.5954 8.63251 20.5965C8.98703 20.5977 9.34152 20.5973 9.69603 20.5961C10.0005 20.5951 10.305 20.5949 10.6095 20.5955C10.7913 20.5959 10.9731 20.5958 11.1549 20.5952C11.3576 20.5946 11.5603 20.5955 11.7629 20.5967C11.8232 20.5962 11.8834 20.5958 11.9455 20.5954C12.0283 20.5963 12.0283 20.5963 12.1127 20.5972C12.1607 20.5973 12.2086 20.5974 12.2579 20.5975C12.4293 20.6341 12.4958 20.7103 12.6055 20.8437C12.6345 20.9531 12.6345 20.9531 12.6328 21.0625C12.6337 21.1166 12.6337 21.1166 12.6345 21.1719C12.5924 21.3306 12.5115 21.3956 12.3867 21.5C12.2579 21.5275 12.2579 21.5275 12.1127 21.5278C12.0575 21.5284 12.0023 21.529 11.9455 21.5296C11.8852 21.5292 11.825 21.5288 11.7629 21.5283C11.6993 21.5287 11.6356 21.5291 11.5699 21.5295C11.3591 21.5304 11.1483 21.5298 10.9375 21.529C10.7912 21.5292 10.6449 21.5294 10.4986 21.5297C10.1919 21.5301 9.88516 21.5296 9.57843 21.5285C9.22391 21.5273 8.86942 21.5277 8.5149 21.5289C8.21041 21.5299 7.90593 21.53 7.60143 21.5295C7.41962 21.5291 7.23782 21.5292 7.05601 21.5298C6.85332 21.5304 6.65068 21.5295 6.448 21.5283C6.38776 21.5287 6.32753 21.5292 6.26547 21.5296C6.18267 21.5287 6.18267 21.5287 6.09819 21.5278C6.05028 21.5277 6.00237 21.5276 5.95301 21.5275C5.78162 21.4909 5.71515 21.4147 5.60547 21.2812C5.57642 21.1719 5.57642 21.1719 5.57812 21.0625C5.57728 21.0084 5.57728 21.0084 5.57642 20.9531C5.64777 20.6845 5.83864 20.5977 6.09819 20.5972Z" fill="white"/>
<path d="M7.64001 22.7842C7.6909 22.7838 7.74179 22.7834 7.79422 22.783C7.96244 22.7821 8.13061 22.7827 8.29883 22.7834C8.4157 22.7833 8.53257 22.7831 8.64944 22.7828C8.89438 22.7825 9.13931 22.783 9.38425 22.784C9.69836 22.7852 10.0124 22.7845 10.3265 22.7832C10.5679 22.7824 10.8092 22.7827 11.0505 22.7832C11.1664 22.7834 11.2822 22.7832 11.398 22.7827C11.5598 22.7821 11.7216 22.783 11.8834 22.7842C11.9314 22.7837 11.9793 22.7833 12.0288 22.7829C12.3532 22.7874 12.3532 22.7874 12.5257 22.9168C12.612 23.0406 12.6351 23.1006 12.6328 23.25C12.6337 23.3041 12.6337 23.3041 12.6345 23.3594C12.59 23.5269 12.5259 23.5831 12.3867 23.6875C12.2192 23.7205 12.0537 23.7174 11.8834 23.7158C11.8325 23.7162 11.7816 23.7166 11.7292 23.717C11.561 23.7179 11.3928 23.7173 11.2246 23.7166C11.1077 23.7167 10.9909 23.7169 10.874 23.7172C10.6291 23.7175 10.3841 23.717 10.1392 23.716C9.82508 23.7148 9.51101 23.7155 9.1969 23.7168C8.95556 23.7176 8.71424 23.7173 8.47291 23.7168C8.35709 23.7166 8.24126 23.7168 8.12544 23.7173C7.96361 23.7179 7.80184 23.717 7.64001 23.7158C7.59205 23.7162 7.54409 23.7167 7.49468 23.7171C7.17019 23.7126 7.17019 23.7126 6.9977 23.5832C6.91144 23.4594 6.88829 23.3994 6.89062 23.25C6.88978 23.1959 6.88978 23.1959 6.88892 23.1406C6.9909 22.7567 7.31156 22.7812 7.64001 22.7842Z" fill="white"/>
<path d="M6.41211 18.4084C6.46955 18.4082 6.52698 18.408 6.58616 18.4078C6.70752 18.4077 6.82887 18.4081 6.95023 18.409C7.13605 18.4102 7.32175 18.409 7.50757 18.4076C7.62549 18.4077 7.74341 18.408 7.86133 18.4084C7.91693 18.408 7.97253 18.4076 8.02982 18.4071C8.41426 18.4122 8.41426 18.4122 8.59352 18.5419C8.67379 18.6652 8.69759 18.729 8.69531 18.875C8.69588 18.9111 8.69644 18.9472 8.69702 18.9844C8.6515 19.1557 8.59451 19.2074 8.44922 19.3125C8.25356 19.3462 8.05945 19.3431 7.86133 19.3416C7.77517 19.3419 7.77517 19.3419 7.68728 19.3422C7.56592 19.3423 7.44456 19.3419 7.32321 19.341C7.13739 19.3398 6.95169 19.341 6.76587 19.3424C6.64795 19.3423 6.53003 19.342 6.41211 19.3416C6.35651 19.342 6.3009 19.3424 6.24361 19.3429C5.85918 19.3378 5.85918 19.3378 5.67992 19.2081C5.59965 19.0848 5.57584 19.021 5.57812 18.875C5.57728 18.8209 5.57728 18.8209 5.57642 18.7656C5.68602 18.353 6.0635 18.4057 6.41211 18.4084Z" fill="white"/>
</g>
<defs>
<clipPath id="clip0_1_222">
<rect width="20.2891" height="28" fill="white" transform="translate(0.355469 0.5)"/>
</clipPath>
</defs>
</svg>
