<svg width="30" height="30" viewBox="0 0 30 30" fill="none" xmlns="http://www.w3.org/2000/svg">
<path fill-rule="evenodd" clip-rule="evenodd" d="M15.0461 10.8908C15.5639 10.8908 15.9836 11.3105 15.9836 11.8283V20.7638C15.9836 21.2816 15.5639 21.7013 15.0461 21.7013C14.5284 21.7013 14.1086 21.2816 14.1086 20.7638V11.8283C14.1086 11.3105 14.5284 10.8908 15.0461 10.8908Z" fill="#5B5B5B"/>
<path fill-rule="evenodd" clip-rule="evenodd" d="M9.63605 16.296C9.63605 15.7782 10.0558 15.3585 10.5735 15.3585H19.5183C20.0361 15.3585 20.4558 15.7782 20.4558 16.296C20.4558 16.8137 20.0361 17.2335 19.5183 17.2335H10.5735C10.0558 17.2335 9.63605 16.8137 9.63605 16.296Z" fill="#5B5B5B"/>
<path fill-rule="evenodd" clip-rule="evenodd" d="M6.20064 7.45058C4.57684 9.07438 3.81256 11.7842 3.81256 16.296C3.81256 20.8079 4.57684 23.5178 6.20064 25.1415C7.82445 26.7654 10.5343 27.5296 15.0461 27.5296C19.5579 27.5296 22.2677 26.7654 23.8916 25.1415C25.5154 23.5178 26.2796 20.8079 26.2796 16.296C26.2796 11.7842 25.5154 9.07438 23.8916 7.45058C22.2677 5.82676 19.5579 5.0625 15.0461 5.0625C10.5343 5.0625 7.82445 5.82676 6.20064 7.45058ZM4.87481 6.12475C7.05462 3.94494 10.4303 3.1875 15.0461 3.1875C19.6619 3.1875 23.0376 3.94494 25.2174 6.12475C27.3972 8.30456 28.1546 11.6802 28.1546 16.296C28.1546 20.9119 27.3972 24.2875 25.2174 26.4674C23.0376 28.6471 19.6619 29.4046 15.0461 29.4046C10.4303 29.4046 7.05462 28.6471 4.87481 26.4674C2.695 24.2875 1.93756 20.9119 1.93756 16.296C1.93756 11.6802 2.695 8.30456 4.87481 6.12475Z" fill="#5B5B5B"/>
</svg>
