<svg width="30" height="30" viewBox="0 0 30 30" fill="none" xmlns="http://www.w3.org/2000/svg">
<path fill-rule="evenodd" clip-rule="evenodd" d="M21.575 10.8425C19.5175 10.8425 17.8375 9.175 17.8375 7.1175V4.565L24.44 10.8425H21.575ZM17.61 20.365H10.8612C10.3437 20.365 9.92373 19.945 9.92373 19.4275C9.92373 18.91 10.3437 18.49 10.8612 18.49H17.61C18.1288 18.49 18.5475 18.91 18.5475 19.4275C18.5475 19.945 18.1288 20.365 17.61 20.365ZM10.8587 13.4762H15.0538C15.5713 13.4762 15.9913 13.8962 15.9913 14.4137C15.9913 14.9325 15.5713 15.3512 15.0538 15.3512H10.8587C10.3412 15.3512 9.92123 14.9325 9.92123 14.4137C9.92123 13.8962 10.3412 13.4762 10.8587 13.4762ZM26.1938 11.0625C26.1938 11.0125 26.1938 10.975 26.1812 10.925C26.1437 10.7 26.1062 10.475 26.0687 10.2625C26.0437 10.125 25.9813 10.0125 25.8813 9.9125L18.7937 3.1625C18.7063 3.075 18.5813 3.0125 18.4563 3C18.2438 2.975 18.0188 2.95 17.7938 2.925C17.7563 2.9125 17.7063 2.9125 17.6688 2.9125C16.9438 2.85 16.1438 2.8125 15.3063 2.8125C7.10623 2.8125 4.19373 6 4.19373 15C4.19373 23.9875 7.10623 27.1875 15.3063 27.1875C23.5188 27.1875 26.4313 23.9875 26.4313 15C26.4313 13.5 26.3563 12.2 26.1938 11.0625Z" fill="white"/>
</svg>
