<svg width="30" height="30" viewBox="0 0 30 30" fill="none" xmlns="http://www.w3.org/2000/svg">
<path fill-rule="evenodd" clip-rule="evenodd" d="M10.5066 19.3123C10.5066 18.7945 10.9263 18.3748 11.4441 18.3748H18.1941C18.7119 18.3748 19.1316 18.7945 19.1316 19.3123C19.1316 19.83 18.7119 20.2498 18.1941 20.2498H11.4441C10.9263 20.2498 10.5066 19.83 10.5066 19.3123Z" fill="#5B5B5B"/>
<path fill-rule="evenodd" clip-rule="evenodd" d="M10.5055 14.2981C10.5055 13.7804 10.9253 13.3606 11.443 13.3606H15.638C16.1557 13.3606 16.5755 13.7804 16.5755 14.2981C16.5755 14.8159 16.1557 15.2356 15.638 15.2356H11.443C10.9253 15.2356 10.5055 14.8159 10.5055 14.2981Z" fill="#5B5B5B"/>
<path fill-rule="evenodd" clip-rule="evenodd" d="M6.4755 5.34049C8.39031 3.22854 11.3601 2.49988 15.3622 2.49988C16.5206 2.49988 17.5891 2.56415 18.552 2.69605C18.747 2.72277 18.9288 2.81022 19.0712 2.94599L26.1588 9.696C26.3027 9.83308 26.3994 10.0124 26.4347 10.2079C26.6853 11.5921 26.7998 13.1887 26.7998 14.9999C26.7998 19.3746 26.1514 22.5815 24.2594 24.6646C22.3425 26.7749 19.3692 27.4999 15.3622 27.4999C11.3611 27.4999 8.39089 26.7747 6.47578 24.6642C4.58563 22.5814 3.93723 19.3747 3.93723 14.9999C3.93723 10.6309 4.58578 7.42478 6.4755 5.34049ZM7.86458 6.59989C6.47618 8.13123 5.81223 10.7064 5.81223 14.9999C5.81223 19.3 6.47633 21.8747 7.8643 23.4042C9.22731 24.9062 11.5009 25.6249 15.3622 25.6249C19.2301 25.6249 21.5069 24.9061 22.8714 23.4039C24.2606 21.8745 24.9248 19.3001 24.9248 14.9999C24.9248 13.398 24.831 12.0172 24.6406 10.8394L18.0009 4.5159C17.2124 4.42267 16.3306 4.37488 15.3622 4.37488C11.5018 4.37488 9.2279 5.09622 7.86458 6.59989Z" fill="#5B5B5B"/>
<path fill-rule="evenodd" clip-rule="evenodd" d="M17.7303 2.60327C18.248 2.60327 18.6678 3.02301 18.6678 3.54077V6.86702C18.6678 8.6714 20.1301 10.1333 21.9353 10.1333H25.624C26.1418 10.1333 26.5615 10.553 26.5615 11.0708C26.5615 11.5885 26.1418 12.0083 25.624 12.0083H21.9353C19.0954 12.0083 16.7928 9.70766 16.7928 6.86702V3.54077C16.7928 3.02301 17.2125 2.60327 17.7303 2.60327Z" fill="#5B5B5B"/>
</svg>
