<svg width="28" height="28" viewBox="0 0 28 28" fill="none" xmlns="http://www.w3.org/2000/svg">
<g clip-path="url(#clip0_105_168)">
<path d="M4.34254 16.1037C4.48327 16.1036 4.62401 16.1033 4.76474 16.1031C5.05875 16.1027 5.35273 16.1032 5.64673 16.1042C5.98476 16.1054 6.32275 16.105 6.66078 16.1038C6.98837 16.1027 7.31595 16.1028 7.64355 16.1035C7.78186 16.1036 7.92017 16.1035 8.05848 16.1029C9.14316 16.0998 10.1062 16.1712 10.9426 16.9511C11.7177 17.7787 11.9304 18.6891 11.9298 19.7868C11.93 19.8374 11.9302 19.888 11.9304 19.9401C11.9309 20.1057 11.931 20.2713 11.9311 20.4368C11.9312 20.5532 11.9314 20.6695 11.9316 20.7858C11.9319 21.029 11.9321 21.2723 11.932 21.5156C11.932 21.8254 11.9328 22.1353 11.9337 22.4451C11.9343 22.6853 11.9344 22.9254 11.9344 23.1655C11.9345 23.2797 11.9347 23.3938 11.9351 23.508C11.9394 24.7601 11.8571 25.8529 10.9546 26.8105C10.0372 27.6822 9.01216 27.7054 7.81861 27.7009C7.68054 27.701 7.54247 27.7012 7.40439 27.7015C7.1161 27.7018 6.82781 27.7014 6.53952 27.7003C6.2083 27.6991 5.87711 27.6995 5.54589 27.7007C5.22457 27.7019 4.90327 27.7017 4.58195 27.7011C4.44643 27.7009 4.31091 27.7011 4.17539 27.7016C2.99502 27.7051 2.11041 27.5952 1.21702 26.7577C0.577385 26.1092 0.302038 25.3143 0.306038 24.4134C0.305663 24.3532 0.305287 24.293 0.304901 24.2309C0.303907 24.0337 0.304111 23.8365 0.304422 23.6393C0.304173 23.5009 0.303882 23.3626 0.303554 23.2243C0.303066 22.9351 0.303184 22.6458 0.303742 22.3565C0.304369 22.0241 0.3036 21.6917 0.302134 21.3593C0.300767 21.0372 0.300641 20.7151 0.300992 20.393C0.301 20.257 0.300673 20.121 0.299991 19.985C0.295033 18.8337 0.383451 17.8958 1.21339 17.018C1.50798 16.7391 1.8151 16.5145 2.18751 16.3515C2.22826 16.3333 2.26901 16.3152 2.31099 16.2965C2.96473 16.0508 3.65451 16.1012 4.34254 16.1037ZM1.96876 18.1015C1.6602 18.6027 1.57789 19.0078 1.57627 19.5848C1.57591 19.6404 1.57555 19.6961 1.57518 19.7534C1.5741 19.9372 1.57346 20.121 1.57292 20.3048C1.57269 20.3678 1.57247 20.4307 1.57224 20.4956C1.5711 20.8289 1.57032 21.1622 1.56981 21.4955C1.5692 21.8388 1.56732 22.1821 1.56515 22.5254C1.56371 22.7902 1.56326 23.055 1.56306 23.3198C1.5628 23.4463 1.56216 23.5728 1.56115 23.6993C1.55981 23.8769 1.55987 24.0544 1.56025 24.232C1.55955 24.2836 1.55884 24.3352 1.55812 24.3884C1.56225 24.9226 1.72757 25.3964 2.07151 25.8084C2.56416 26.2901 3.07583 26.4303 3.74122 26.4308C3.8252 26.4314 3.8252 26.4314 3.91088 26.4321C4.09535 26.4335 4.27982 26.4339 4.4643 26.4343C4.59325 26.4348 4.72219 26.4353 4.85113 26.4358C5.12135 26.4367 5.39155 26.4371 5.66177 26.4373C6.00654 26.4376 6.35128 26.4396 6.69604 26.4421C6.96244 26.4438 7.22884 26.4442 7.49524 26.4442C7.62226 26.4444 7.74928 26.4451 7.8763 26.4463C8.73038 26.4534 9.47406 26.4555 10.1242 25.8221C10.529 25.3514 10.626 24.858 10.6244 24.2553C10.6247 24.1989 10.625 24.1426 10.6253 24.0845C10.626 23.899 10.626 23.7135 10.6258 23.528C10.626 23.3985 10.6263 23.269 10.6265 23.1396C10.627 22.8684 10.6269 22.5973 10.6266 22.3262C10.6263 21.9794 10.6273 21.6327 10.6285 21.2859C10.6293 21.0186 10.6294 20.7513 10.6292 20.484C10.6292 20.3561 10.6295 20.2283 10.6301 20.1005C10.6308 19.9215 10.6304 19.7425 10.6297 19.5635C10.6302 19.5111 10.6306 19.4588 10.631 19.4048C10.6264 18.8152 10.434 18.3268 10.0262 17.896C9.66257 17.5656 9.26441 17.3857 8.77076 17.3822C8.72163 17.3817 8.67251 17.3812 8.6219 17.3807C8.54208 17.3804 8.54208 17.3804 8.46064 17.38C8.40405 17.3796 8.34746 17.3791 8.28915 17.3787C8.10204 17.3773 7.91494 17.3764 7.72782 17.3756C7.66373 17.3753 7.59964 17.375 7.53361 17.3747C7.19422 17.3733 6.85484 17.3722 6.51545 17.3714C6.23532 17.3707 5.95522 17.3692 5.67511 17.3669C5.33616 17.3642 4.99722 17.3629 4.65826 17.3625C4.52952 17.3621 4.40078 17.3613 4.27204 17.36C3.37618 17.3514 2.58802 17.355 1.96876 18.1015Z" fill="white"/>
<path d="M3.58658 0.306037C3.67688 0.305474 3.67688 0.305474 3.76901 0.304899C3.96624 0.303906 4.16345 0.304109 4.36069 0.304421C4.499 0.304171 4.6373 0.303881 4.77561 0.303552C5.06489 0.303065 5.35415 0.303182 5.64343 0.30374C5.97586 0.304367 6.30826 0.303599 6.64068 0.302133C6.96279 0.300766 7.28488 0.300639 7.60698 0.300991C7.74296 0.300999 7.87894 0.300672 8.01492 0.29999C9.16365 0.295043 10.0989 0.383758 10.9785 1.20655C11.7299 1.99815 11.9304 2.91572 11.9298 3.98134C11.93 4.03184 11.9302 4.08234 11.9304 4.13438C11.9309 4.29968 11.931 4.46498 11.9311 4.63029C11.9312 4.74647 11.9314 4.86266 11.9316 4.97884C11.9319 5.22187 11.932 5.4649 11.932 5.70792C11.932 6.0173 11.9327 6.32666 11.9337 6.63603C11.9343 6.87593 11.9344 7.11583 11.9344 7.35573C11.9344 7.46968 11.9347 7.58363 11.9351 7.69759C11.9389 8.81405 11.9037 9.78701 11.2109 10.7188C11.1715 10.774 11.132 10.8293 11.0913 10.8862C10.6261 11.4213 9.86624 11.8245 9.15693 11.8777C8.99491 11.8821 8.83321 11.8832 8.67113 11.8831C8.57914 11.8836 8.57914 11.8836 8.48529 11.8842C8.28335 11.8852 8.08142 11.8854 7.87949 11.8856C7.73836 11.8859 7.59723 11.8863 7.45611 11.8867C7.16048 11.8873 6.86485 11.8875 6.56922 11.8875C6.22918 11.8874 5.88916 11.8885 5.54913 11.8903C5.22023 11.8919 4.89133 11.8923 4.56243 11.8922C4.42335 11.8923 4.28427 11.8928 4.1452 11.8937C2.75213 11.9014 2.75213 11.9014 2.1875 11.6484C2.1242 11.6207 2.06089 11.593 1.99567 11.5645C1.17717 11.0868 0.623875 10.4046 0.372879 9.48858C0.258518 8.94544 0.296984 8.37046 0.299073 7.81861C0.298925 7.68054 0.298712 7.54246 0.298438 7.40439C0.298117 7.11609 0.298559 6.82781 0.299607 6.53952C0.300797 6.2083 0.300411 5.8771 0.299207 5.54588C0.298087 5.22457 0.298216 4.90327 0.298853 4.58195C0.298998 4.44643 0.298824 4.31091 0.298311 4.17539C0.294823 2.99502 0.404751 2.11041 1.24222 1.21702C1.89072 0.577384 2.68569 0.302036 3.58658 0.306037ZM1.9664 2.33256C1.65205 2.80506 1.56957 3.18351 1.56918 3.74122C1.56873 3.7972 1.56827 3.85319 1.5678 3.91087C1.56649 4.09535 1.56601 4.27982 1.56564 4.4643C1.56515 4.59325 1.56465 4.72219 1.56415 4.85113C1.56325 5.12134 1.56282 5.39155 1.56267 5.66177C1.56237 6.00654 1.56031 6.35128 1.55781 6.69604C1.55618 6.96244 1.55579 7.22884 1.55574 7.49524C1.55551 7.62226 1.55483 7.74928 1.55368 7.87629C1.54658 8.73073 1.54473 9.47338 2.17767 10.1242C2.63145 10.5138 3.10448 10.6259 3.6888 10.6244C3.74567 10.6247 3.80253 10.625 3.86112 10.6253C4.04872 10.626 4.23632 10.626 4.42392 10.6258C4.55469 10.626 4.68546 10.6263 4.81623 10.6265C5.09027 10.627 5.3643 10.6269 5.63833 10.6266C5.98882 10.6263 6.33929 10.6273 6.68978 10.6285C6.95987 10.6293 7.22997 10.6294 7.50007 10.6292C7.62925 10.6292 7.75843 10.6295 7.88761 10.6301C8.06862 10.6308 8.24959 10.6304 8.43059 10.6297C8.48354 10.6302 8.53648 10.6306 8.59103 10.631C9.18266 10.6265 9.67156 10.4355 10.1039 10.0262C10.4134 9.6856 10.6145 9.29426 10.6178 8.82994C10.6183 8.78043 10.6187 8.73093 10.6192 8.67992C10.6196 8.59903 10.6196 8.59903 10.6199 8.51652C10.6204 8.4594 10.6208 8.40228 10.6213 8.34343C10.6226 8.15425 10.6235 7.96507 10.6243 7.77589C10.6248 7.67877 10.6248 7.67877 10.6252 7.57969C10.6267 7.23676 10.6277 6.89383 10.6285 6.55089C10.6292 6.26774 10.6308 5.98462 10.633 5.70147C10.6357 5.35904 10.6371 5.01663 10.6374 4.67418C10.6378 4.54406 10.6386 4.41395 10.64 4.28384C10.6564 3.10222 10.6564 3.10222 10.0559 2.1153C9.58269 1.69229 9.06263 1.5609 8.43995 1.56385C8.35568 1.56329 8.35568 1.56329 8.26971 1.56271C8.0853 1.56172 7.90091 1.56192 7.71649 1.56223C7.58744 1.56198 7.45839 1.56169 7.32935 1.56137C7.05933 1.56088 6.78931 1.56101 6.5193 1.56155C6.17439 1.56218 5.82952 1.56108 5.48463 1.55948C5.21823 1.55847 4.95184 1.55849 4.68544 1.5588C4.55834 1.55881 4.43123 1.55848 4.30412 1.5578C4.1259 1.55698 3.94773 1.55757 3.76951 1.55851C3.71773 1.55798 3.66595 1.55745 3.6126 1.55691C2.9607 1.56401 2.36946 1.80927 1.9664 2.33256Z" fill="white"/>
<path d="M20.1814 0.299012C20.3195 0.298864 20.4575 0.298651 20.5956 0.298377C20.8839 0.298056 21.1722 0.298498 21.4605 0.299546C21.7917 0.300736 22.1229 0.30035 22.4541 0.299146C22.7754 0.298026 23.0967 0.298155 23.4181 0.298792C23.5536 0.298937 23.6891 0.298763 23.8246 0.29825C25.005 0.294762 25.8896 0.40469 26.783 1.24216C27.4915 1.96051 27.7012 2.80401 27.6992 3.79047C27.7007 3.86399 27.7023 3.93751 27.7039 4.01103C27.7051 4.60116 27.7051 4.60116 27.5452 4.80454C27.3608 4.95192 27.2508 4.9765 27.0156 4.9765C26.7684 4.92317 26.6316 4.84134 26.4687 4.64838C26.3989 4.50863 26.4063 4.40675 26.4044 4.2504C26.4031 4.19178 26.4018 4.13316 26.4005 4.07277C26.3982 3.9503 26.3965 3.82782 26.3954 3.70534C26.3791 3.06782 26.2122 2.53799 25.7578 2.07806C25.3107 1.71307 24.8081 1.6158 24.2446 1.61847C24.1885 1.61809 24.1323 1.61772 24.0744 1.61733C23.89 1.61634 23.7056 1.61654 23.5212 1.61685C23.3921 1.6166 23.2631 1.61631 23.134 1.61598C22.864 1.6155 22.594 1.61563 22.324 1.61617C21.9791 1.6168 21.6342 1.61569 21.2893 1.6141C21.0229 1.61309 20.7565 1.61311 20.4901 1.61342C20.363 1.61343 20.2359 1.6131 20.1088 1.61242C19.9306 1.6116 19.7524 1.61219 19.5742 1.61313C19.5224 1.6126 19.4706 1.61207 19.4173 1.61152C18.8796 1.61738 18.4073 1.78395 17.9926 2.12955C17.5527 2.58054 17.4289 3.08347 17.4294 3.69289C17.4291 3.7502 17.4287 3.80751 17.4283 3.86656C17.4273 4.05568 17.4271 4.24478 17.4269 4.4339C17.4266 4.56577 17.4262 4.69763 17.4258 4.8295C17.4252 5.10588 17.425 5.38225 17.425 5.65863C17.4251 6.01193 17.4236 6.36522 17.4217 6.71852C17.4205 6.99092 17.4202 7.26331 17.4203 7.53571C17.4202 7.66592 17.4197 7.79613 17.4188 7.92633C17.4178 8.1089 17.4181 8.29142 17.4187 8.47399C17.4178 8.55388 17.4178 8.55388 17.4169 8.63538C17.4218 9.1808 17.61 9.66749 17.9922 10.0624C18.4674 10.4578 18.9537 10.5797 19.5618 10.5759C19.6463 10.5763 19.6463 10.5763 19.7326 10.5767C19.9175 10.5774 20.1024 10.577 20.2874 10.5764C20.4167 10.5765 20.546 10.5767 20.6753 10.5769C20.9458 10.5771 21.2162 10.5768 21.4867 10.576C21.8326 10.5751 22.1785 10.5756 22.5244 10.5766C22.7912 10.5772 23.0581 10.577 23.3249 10.5766C23.4524 10.5765 23.5799 10.5766 23.7074 10.577C23.8859 10.5774 24.0644 10.5768 24.2429 10.5759C24.2951 10.5762 24.3473 10.5765 24.401 10.5769C24.9841 10.5714 25.4937 10.3855 25.9086 9.96503C26.3795 9.38768 26.3895 8.75369 26.3867 8.04584C26.3861 7.87505 26.3868 7.70435 26.3884 7.53357C26.3878 7.495 26.3872 7.45643 26.3866 7.41669C26.3893 7.15277 26.4478 7.0224 26.6328 6.83588C26.7981 6.71192 26.9731 6.70072 27.1778 6.70493C27.3775 6.74365 27.4771 6.8564 27.6172 6.99994C27.7049 7.17543 27.6831 7.36674 27.6849 7.55963C27.6853 7.605 27.6858 7.65037 27.6862 7.69711C27.687 7.79366 27.6876 7.8902 27.688 7.98674C27.6886 8.08421 27.6897 8.18168 27.6914 8.27914C27.7089 9.32483 27.5346 10.186 26.7935 10.9785C26.1276 11.6105 25.3733 11.8932 24.4572 11.8892C24.3958 11.8896 24.3345 11.89 24.2713 11.8904C24.0702 11.8914 23.8692 11.8912 23.6682 11.8908C23.5273 11.8911 23.3864 11.8914 23.2455 11.8917C22.9508 11.8922 22.6562 11.8921 22.3615 11.8915C22.0227 11.8909 21.6839 11.8917 21.3451 11.8931C21.0169 11.8945 20.6888 11.8946 20.3607 11.8943C20.2221 11.8943 20.0835 11.8946 19.9449 11.8953C18.8585 11.8999 17.8953 11.83 17.0574 11.0487C16.4123 10.36 16.1161 9.60373 16.1169 8.67107C16.1166 8.60974 16.1162 8.54841 16.1158 8.48523C16.1148 8.28329 16.1146 8.08136 16.1144 7.87943C16.1141 7.7383 16.1137 7.59717 16.1133 7.45605C16.1127 7.16042 16.1125 6.86479 16.1125 6.56916C16.1126 6.22912 16.1115 5.8891 16.1097 5.54907C16.1081 5.22017 16.1077 4.89127 16.1078 4.56236C16.1077 4.42329 16.1072 4.28421 16.1063 4.14514C16.0986 2.75207 16.0986 2.75207 16.3516 2.18744C16.3793 2.12413 16.407 2.06083 16.4355 1.99561C16.9132 1.17711 17.5955 0.623814 18.5114 0.372818C19.0546 0.258457 19.6295 0.296923 20.1814 0.299012Z" fill="white"/>
<path d="M22.1484 16.1328C22.3061 16.1985 22.3856 16.245 22.4826 16.3837C22.5541 16.5777 22.5455 16.7683 22.5437 16.9722C22.5437 17.0181 22.5437 17.064 22.5437 17.1113C22.5436 17.2628 22.5428 17.4143 22.5419 17.5658C22.5417 17.6709 22.5416 17.7761 22.5415 17.8812C22.541 18.1578 22.54 18.4343 22.5388 18.7109C22.5376 18.9931 22.5371 19.2754 22.5366 19.5576C22.5354 20.1114 22.5335 20.6651 22.5312 21.2188C22.5879 21.2184 22.6446 21.218 22.7031 21.2177C23.2381 21.2143 23.7732 21.2119 24.3083 21.2103C24.5833 21.2094 24.8584 21.2083 25.1335 21.2064C25.399 21.2046 25.6646 21.2036 25.9302 21.2032C26.0314 21.2029 26.1326 21.2023 26.2338 21.2014C26.3758 21.2002 26.5178 21.2001 26.6598 21.2001C26.7014 21.1996 26.743 21.199 26.7858 21.1984C27.0654 21.2 27.259 21.2531 27.5078 21.3828C27.6845 21.5766 27.703 21.7734 27.6954 22.0269C27.6551 22.2351 27.5502 22.332 27.3984 22.4766C27.2231 22.5643 27.0325 22.5383 26.8399 22.5375C26.7703 22.5375 26.7703 22.5375 26.6992 22.5375C26.5453 22.5375 26.3915 22.537 26.2376 22.5366C26.1311 22.5365 26.0246 22.5364 25.9181 22.5364C25.6374 22.5362 25.3567 22.5356 25.076 22.535C24.7897 22.5345 24.5034 22.5342 24.2172 22.5339C23.6552 22.5334 23.0932 22.5324 22.5312 22.5313C22.5319 22.5901 22.5325 22.649 22.5331 22.7097C22.5386 23.2649 22.5427 23.8201 22.5454 24.3753C22.5468 24.6607 22.5488 24.9461 22.5519 25.2316C22.5548 25.5071 22.5565 25.7826 22.5572 26.0581C22.5577 26.1632 22.5587 26.2682 22.5602 26.3733C22.5621 26.5206 22.5624 26.6678 22.5623 26.8151C22.5633 26.8584 22.5643 26.9017 22.5653 26.9463C22.5632 27.1686 22.5414 27.3037 22.3994 27.4794C22.2253 27.6489 22.148 27.6808 21.9126 27.6856C21.6904 27.6816 21.5525 27.6626 21.3828 27.5078C21.2302 27.2153 21.1955 26.9867 21.2001 26.6599C21.2001 26.5926 21.2001 26.5926 21.2 26.5239C21.2002 26.3769 21.2014 26.2298 21.2027 26.0828C21.203 25.9803 21.2033 25.8779 21.2034 25.7754C21.204 25.5067 21.2057 25.238 21.2075 24.9692C21.2092 24.6947 21.2099 24.4201 21.2107 24.1455C21.2125 23.6074 21.2153 23.0694 21.2187 22.5313C21.1604 22.5316 21.1021 22.532 21.042 22.5324C20.4925 22.5357 19.9429 22.5382 19.3933 22.5398C19.1107 22.5406 18.8282 22.5418 18.5456 22.5436C18.273 22.5454 18.0003 22.5464 17.7276 22.5468C17.6236 22.5471 17.5196 22.5477 17.4155 22.5486C17.2698 22.5498 17.1241 22.55 16.9784 22.5499C16.9354 22.5505 16.8924 22.5511 16.8481 22.5517C16.5996 22.5503 16.4399 22.521 16.2422 22.3672C16.0836 22.136 16.0979 21.871 16.1328 21.6016C16.2336 21.4154 16.3014 21.3494 16.4954 21.2674C16.711 21.2105 16.9125 21.2042 17.1336 21.2064C17.1779 21.2063 17.2222 21.2063 17.2679 21.2063C17.4135 21.2064 17.5591 21.2072 17.7046 21.2081C17.8059 21.2083 17.9072 21.2084 18.0085 21.2086C18.2745 21.209 18.5404 21.21 18.8063 21.2113C19.078 21.2124 19.3496 21.2129 19.6213 21.2134C20.1538 21.2146 20.6863 21.2165 21.2187 21.2188C21.2182 21.1347 21.2182 21.1347 21.2176 21.049C21.2143 20.5204 21.2119 19.9918 21.2102 19.4631C21.2094 19.1914 21.2082 18.9196 21.2064 18.6479C21.2046 18.3855 21.2036 18.1231 21.2032 17.8607C21.2029 17.7607 21.2023 17.6608 21.2014 17.5608C21.2002 17.4205 21.2 17.2802 21.2001 17.1398C21.1995 17.0988 21.1989 17.0577 21.1983 17.0154C21.2002 16.7001 21.2563 16.4258 21.4856 16.1922C21.6982 16.0834 21.9161 16.105 22.1484 16.1328Z" fill="white"/>
</g>
<defs>
<clipPath id="clip0_105_168">
<rect width="28" height="28" fill="white"/>
</clipPath>
</defs>
</svg>
