<svg width="30" height="30" viewBox="0 0 30 30" fill="none" xmlns="http://www.w3.org/2000/svg">
<path fill-rule="evenodd" clip-rule="evenodd" d="M14.8056 27.0774C10.1909 27.0774 6.25 26.3592 6.25 23.4834C6.25 20.6074 10.1659 17.9524 14.8056 17.9524C19.4205 17.9524 23.3614 20.5816 23.3614 23.4576C23.3614 26.3324 19.4455 27.0774 14.8056 27.0774Z" stroke="#5B5B5B" stroke-width="1.5" stroke-linecap="round" stroke-linejoin="round"/>
<path fill-rule="evenodd" clip-rule="evenodd" d="M14.7965 13.9671C17.825 13.9671 20.2795 11.5125 20.2795 8.48413C20.2795 5.45572 17.825 3.00003 14.7965 3.00003C11.7681 3.00003 9.31247 5.45572 9.31247 8.48413C9.30225 11.5023 11.7397 13.9569 14.7579 13.9671C14.7715 13.9671 14.784 13.9671 14.7965 13.9671Z" stroke="#5B5B5B" stroke-width="1.5" stroke-linecap="round" stroke-linejoin="round"/>
</svg>
